<?xml version="1.0" encoding="UTF-8" standalone="no"?><!DOCTYPE svg PUBLIC "-//W3C//DTD SVG 1.1//EN" "http://www.w3.org/Graphics/SVG/1.1/DTD/svg11.dtd"><svg width="100%" height="100%" viewBox="0 0 255 65" version="1.1" xmlns="http://www.w3.org/2000/svg" xmlns:xlink="http://www.w3.org/1999/xlink" xml:space="preserve" xmlns:serif="http://www.serif.com/" style="fill-rule:evenodd;clip-rule:evenodd;stroke-linejoin:round;stroke-miterlimit:2;"><path d="M143.321,64.16c-0.597,-0 -1.157,-0.294 -1.496,-0.785c-0.34,-0.491 -0.417,-1.117 -0.207,-1.676l22.516,-59.81c0.428,-1.137 1.515,-1.889 2.729,-1.889l31.024,0c6.127,0 10.613,0.525 13.456,1.576c2.843,1.05 4.721,2.997 5.634,5.842c0.913,2.845 0.601,6.31 -0.937,10.394c-1.34,3.56 -3.254,6.631 -5.744,9.213c-2.489,2.582 -5.363,4.675 -8.622,6.28c-1.377,0.677 -3,1.277 -4.869,1.8c-0.414,0.119 -0.721,0.468 -0.784,0.894c-0.063,0.426 0.128,0.849 0.489,1.084c3.372,2.079 4.257,5.4 4.706,8.483l2.297,16.523c0.073,0.522 -0.084,1.049 -0.43,1.446c-0.345,0.397 -0.846,0.625 -1.372,0.625l-18.496,-0c-1.051,-0 -1.947,-0.762 -2.116,-1.799l-2.916,-17.808c-0.387,-2.539 -0.962,-4.187 -1.727,-4.946c-1.056,-0.992 -2.489,-1.488 -4.298,-1.488l-1.001,0c-0.451,0 -0.855,0.28 -1.014,0.702l-8.913,23.677c-0.376,1 -1.333,1.662 -2.401,1.662l-15.508,-0Zm32.392,-40.133c-0.169,0.448 -0.107,0.949 0.165,1.342c0.272,0.393 0.719,0.627 1.197,0.627l6.256,0c5.061,0 8.317,-1.809 9.555,-2.888c1.238,-1.08 2.121,-2.32 2.648,-3.72c0.78,-2.072 0.722,-3.662 -0.173,-4.77c-0.896,-1.109 -3.153,-1.664 -6.771,-1.664l-7.22,0c-0.896,0 -1.698,0.556 -2.014,1.394l-3.643,9.679Zm58.494,-21.687c0.53,-1.408 1.877,-2.34 3.381,-2.34l14.74,0c0.597,-0 1.156,0.293 1.496,0.784c0.34,0.491 0.417,1.118 0.207,1.677l-22.346,59.359c-0.53,1.407 -1.877,2.34 -3.381,2.34l-14.74,-0c-0.597,-0 -1.157,-0.294 -1.497,-0.785c-0.339,-0.491 -0.417,-1.117 -0.206,-1.676l22.346,-59.359Zm-167.142,28.7c0.017,0.009 0.418,0.216 0.596,0.32c1.557,0.906 2.864,2.237 3.741,3.885c1.712,3.213 1.512,7.109 -0.52,10.131l-0.323,0.48c-7.693,11.442 -20.576,18.304 -34.363,18.304l-35.038,-0c-0.428,-0 -0.821,-0.236 -1.022,-0.614c-0.201,-0.378 -0.178,-0.835 0.061,-1.191l20.932,-31.129c0.159,-0.237 0.175,-0.542 0.041,-0.794c-0.134,-0.252 -0.396,-0.409 -0.682,-0.409l-3.547,-0c-0.428,-0 -0.821,-0.236 -1.022,-0.614c-0.201,-0.377 -0.177,-0.835 0.061,-1.19l18.099,-26.916c0.547,-0.815 1.464,-1.303 2.445,-1.303l33.293,0c4.513,0 8.658,2.489 10.78,6.472c2.121,3.983 1.873,8.811 -0.645,12.556l-0.961,1.43c-2.781,4.136 -6.86,7.127 -11.496,8.578c-0.126,0.039 -0.281,0.086 -0.567,0.238c-0.282,0.15 -0.421,0.496 -0.421,0.84c0,0.401 0.226,0.75 0.558,0.926Zm-26.025,-7.679c-0.239,0.355 -0.262,0.813 -0.061,1.19c0.201,0.378 0.594,0.614 1.022,0.614l6.448,-0c3.092,-0 5.602,-0.533 7.529,-1.598c1.927,-1.064 3.567,-2.604 4.921,-4.617c1.256,-1.867 1.631,-3.326 1.127,-4.376c-0.505,-1.051 -2.26,-1.576 -5.265,-1.576l-7.184,0c-0.981,0 -1.897,0.489 -2.445,1.303l-6.092,9.06Zm-11.573,25.209c-0.238,0.355 -0.262,0.812 -0.061,1.19c0.201,0.378 0.594,0.614 1.022,0.614l7.936,-0c3.414,-0 6.228,-0.606 8.443,-1.817c2.214,-1.211 4.008,-2.837 5.381,-4.88c1.276,-1.896 1.608,-3.42 0.997,-4.573c-0.611,-1.152 -2.653,-1.729 -6.125,-1.729l-8.496,0c-0.981,0 -1.898,0.489 -2.445,1.303l-6.652,9.892Zm84.557,6.91c0.038,-0.493 -0.13,-0.979 -0.466,-1.342c-0.335,-0.363 -0.807,-0.57 -1.301,-0.57l-19.06,0c-1.003,0 -1.94,0.501 -2.499,1.334l-5.307,7.924c-0.559,0.833 -1.496,1.334 -2.499,1.334l-16.324,-0c-0.441,-0 -0.845,-0.25 -1.042,-0.645c-0.197,-0.395 -0.154,-0.868 0.111,-1.221l45.955,-61.085c0.573,-0.761 1.47,-1.209 2.423,-1.209l18.515,0c0.422,-0 0.827,0.168 1.125,0.466c0.299,0.299 0.466,0.703 0.466,1.125l-0.037,60.615c-0,1.079 -0.875,1.954 -1.955,1.954l-17.031,-0c-0.453,-0 -0.886,-0.19 -1.194,-0.523c-0.308,-0.333 -0.463,-0.78 -0.427,-1.232l0.547,-6.925Zm3.54,-39.724l-5.003,7.488c-0.502,0.751 -1.173,1.436 -1.945,1.985c-0.772,0.548 -1.616,0.941 -2.447,1.138l-8.284,1.96c-0.421,0.099 -0.826,0.443 -0.986,0.836c-0.16,0.394 -0.034,0.737 0.306,0.837l6.691,1.96c0.671,0.197 1.196,0.589 1.522,1.138c0.326,0.549 0.44,1.234 0.332,1.985l-1.083,7.488c-0.055,0.38 0.181,0.645 0.574,0.645c0.394,0 0.845,-0.265 1.099,-0.645l5.003,-7.488c0.502,-0.751 1.173,-1.436 1.945,-1.985c0.772,-0.549 1.616,-0.941 2.447,-1.138l8.284,-1.96c0.421,-0.1 0.826,-0.443 0.986,-0.837c0.16,-0.393 0.034,-0.737 -0.306,-0.836l-6.691,-1.96c-0.671,-0.197 -1.196,-0.59 -1.522,-1.138c-0.326,-0.549 -0.44,-1.234 -0.332,-1.985l1.083,-7.488c0.055,-0.38 -0.181,-0.646 -0.574,-0.646c-0.393,0 -0.845,0.266 -1.099,0.646Z" style="fill:#000000;"/></svg>